<svg id="visual" viewBox="0 0 450 800" width="450" height="800" xmlns="http://www.w3.org/2000/svg" xmlns:xlink="http://www.w3.org/1999/xlink" version="1.1"><rect x="0" y="0" width="450" height="800" fill="#32363a"></rect><path d="M130 0L127.8 8.3C125.7 16.7 121.3 33.3 120.3 50C119.3 66.7 121.7 83.3 127.7 100C133.7 116.7 143.3 133.3 145.5 150C147.7 166.7 142.3 183.3 140.2 200C138 216.7 139 233.3 136.8 250C134.7 266.7 129.3 283.3 130.2 300C131 316.7 138 333.3 136.3 350C134.7 366.7 124.3 383.3 124.2 400C124 416.7 134 433.3 142.2 450C150.3 466.7 156.7 483.3 153.7 500C150.7 516.7 138.3 533.3 134.2 550C130 566.7 134 583.3 136.7 600C139.3 616.7 140.7 633.3 142.8 650C145 666.7 148 683.3 144.2 700C140.3 716.7 129.7 733.3 128.5 750C127.3 766.7 135.7 783.3 139.8 791.7L144 800L0 800L0 791.7C0 783.3 0 766.7 0 750C0 733.3 0 716.7 0 700C0 683.3 0 666.7 0 650C0 633.3 0 616.7 0 600C0 583.3 0 566.7 0 550C0 533.3 0 516.7 0 500C0 483.3 0 466.7 0 450C0 433.3 0 416.7 0 400C0 383.3 0 366.7 0 350C0 333.3 0 316.7 0 300C0 283.3 0 266.7 0 250C0 233.3 0 216.7 0 200C0 183.3 0 166.7 0 150C0 133.3 0 116.7 0 100C0 83.3 0 66.7 0 50C0 33.3 0 16.7 0 8.3L0 0Z" fill="#32363a"></path><path d="M133 0L127.5 8.3C122 16.7 111 33.3 109.7 50C108.3 66.7 116.7 83.3 120 100C123.3 116.7 121.7 133.3 121.7 150C121.7 166.7 123.3 183.3 122 200C120.7 216.7 116.3 233.3 116.5 250C116.7 266.7 121.3 283.3 124.7 300C128 316.7 130 333.3 128.7 350C127.3 366.7 122.7 383.3 119.2 400C115.7 416.7 113.3 433.3 113.8 450C114.3 466.7 117.7 483.3 121.8 500C126 516.7 131 533.3 130.5 550C130 566.7 124 583.3 122.3 600C120.7 616.7 123.3 633.3 124 650C124.7 666.7 123.3 683.3 125.2 700C127 716.7 132 733.3 134 750C136 766.7 135 783.3 134.5 791.7L134 800L0 800L0 791.7C0 783.3 0 766.7 0 750C0 733.3 0 716.7 0 700C0 683.3 0 666.7 0 650C0 633.3 0 616.7 0 600C0 583.3 0 566.7 0 550C0 533.3 0 516.7 0 500C0 483.3 0 466.7 0 450C0 433.3 0 416.7 0 400C0 383.3 0 366.7 0 350C0 333.3 0 316.7 0 300C0 283.3 0 266.7 0 250C0 233.3 0 216.7 0 200C0 183.3 0 166.7 0 150C0 133.3 0 116.7 0 100C0 83.3 0 66.7 0 50C0 33.3 0 16.7 0 8.3L0 0Z" fill="#2b5562"></path><path d="M114 0L112.2 8.3C110.3 16.7 106.7 33.3 108.2 50C109.7 66.7 116.3 83.3 118.2 100C120 116.7 117 133.3 112.8 150C108.7 166.7 103.3 183.3 103.2 200C103 216.7 108 233.3 108.7 250C109.3 266.7 105.7 283.3 107.7 300C109.7 316.7 117.3 333.3 120.2 350C123 366.7 121 383.3 120.3 400C119.7 416.7 120.3 433.3 122.2 450C124 466.7 127 483.3 126.8 500C126.7 516.7 123.3 533.3 116.7 550C110 566.7 100 583.3 96 600C92 616.7 94 633.3 94.2 650C94.3 666.7 92.7 683.3 93.7 700C94.7 716.7 98.3 733.3 98.2 750C98 766.7 94 783.3 92 791.7L90 800L0 800L0 791.7C0 783.3 0 766.7 0 750C0 733.3 0 716.7 0 700C0 683.3 0 666.7 0 650C0 633.3 0 616.7 0 600C0 583.3 0 566.7 0 550C0 533.3 0 516.7 0 500C0 483.3 0 466.7 0 450C0 433.3 0 416.7 0 400C0 383.3 0 366.7 0 350C0 333.3 0 316.7 0 300C0 283.3 0 266.7 0 250C0 233.3 0 216.7 0 200C0 183.3 0 166.7 0 150C0 133.3 0 116.7 0 100C0 83.3 0 66.7 0 50C0 33.3 0 16.7 0 8.3L0 0Z" fill="#00777b"></path><path d="M81 0L84.5 8.3C88 16.7 95 33.3 100.5 50C106 66.7 110 83.3 108.8 100C107.7 116.7 101.3 133.3 100.5 150C99.7 166.7 104.3 183.3 105.7 200C107 216.7 105 233.3 105.2 250C105.3 266.7 107.7 283.3 109.7 300C111.7 316.7 113.3 333.3 110 350C106.7 366.7 98.3 383.3 92.7 400C87 416.7 84 433.3 84 450C84 466.7 87 483.3 91 500C95 516.7 100 533.3 104.2 550C108.3 566.7 111.7 583.3 108.3 600C105 616.7 95 633.3 92.8 650C90.7 666.7 96.3 683.3 97.8 700C99.3 716.7 96.7 733.3 97.7 750C98.7 766.7 103.3 783.3 105.7 791.7L108 800L0 800L0 791.7C0 783.3 0 766.7 0 750C0 733.3 0 716.7 0 700C0 683.3 0 666.7 0 650C0 633.3 0 616.7 0 600C0 583.3 0 566.7 0 550C0 533.3 0 516.7 0 500C0 483.3 0 466.7 0 450C0 433.3 0 416.7 0 400C0 383.3 0 366.7 0 350C0 333.3 0 316.7 0 300C0 283.3 0 266.7 0 250C0 233.3 0 216.7 0 200C0 183.3 0 166.7 0 150C0 133.3 0 116.7 0 100C0 83.3 0 66.7 0 50C0 33.3 0 16.7 0 8.3L0 0Z" fill="#009873"></path><path d="M79 0L83.2 8.3C87.3 16.7 95.7 33.3 98 50C100.3 66.7 96.7 83.3 92.5 100C88.3 116.7 83.7 133.3 81.2 150C78.7 166.7 78.3 183.3 78.5 200C78.7 216.7 79.3 233.3 78.8 250C78.3 266.7 76.7 283.3 76 300C75.3 316.7 75.7 333.3 79.5 350C83.3 366.7 90.7 383.3 91.2 400C91.7 416.7 85.3 433.3 81.5 450C77.7 466.7 76.3 483.3 77.5 500C78.7 516.7 82.3 533.3 83 550C83.7 566.7 81.3 583.3 79.5 600C77.7 616.7 76.3 633.3 79 650C81.7 666.7 88.3 683.3 89.3 700C90.3 716.7 85.7 733.3 82 750C78.3 766.7 75.7 783.3 74.3 791.7L73 800L0 800L0 791.7C0 783.3 0 766.7 0 750C0 733.3 0 716.7 0 700C0 683.3 0 666.7 0 650C0 633.3 0 616.7 0 600C0 583.3 0 566.7 0 550C0 533.3 0 516.7 0 500C0 483.3 0 466.7 0 450C0 433.3 0 416.7 0 400C0 383.3 0 366.7 0 350C0 333.3 0 316.7 0 300C0 283.3 0 266.7 0 250C0 233.3 0 216.7 0 200C0 183.3 0 166.7 0 150C0 133.3 0 116.7 0 100C0 83.3 0 66.7 0 50C0 33.3 0 16.7 0 8.3L0 0Z" fill="#04aa5c"></path><path d="M77 0L75 8.3C73 16.7 69 33.3 67.7 50C66.3 66.7 67.7 83.3 70.8 100C74 116.7 79 133.3 81.2 150C83.3 166.7 82.7 183.3 83.3 200C84 216.7 86 233.3 85.3 250C84.7 266.7 81.3 283.3 80 300C78.7 316.7 79.3 333.3 78.8 350C78.3 366.7 76.7 383.3 78 400C79.3 416.7 83.7 433.3 84.7 450C85.7 466.7 83.3 483.3 79 500C74.7 516.7 68.3 533.3 69.5 550C70.7 566.7 79.3 583.3 80.5 600C81.7 616.7 75.3 633.3 70.8 650C66.3 666.7 63.7 683.3 66 700C68.3 716.7 75.7 733.3 75.7 750C75.7 766.7 68.3 783.3 64.7 791.7L61 800L0 800L0 791.7C0 783.3 0 766.7 0 750C0 733.3 0 716.7 0 700C0 683.3 0 666.7 0 650C0 633.3 0 616.7 0 600C0 583.3 0 566.7 0 550C0 533.3 0 516.7 0 500C0 483.3 0 466.7 0 450C0 433.3 0 416.7 0 400C0 383.3 0 366.7 0 350C0 333.3 0 316.7 0 300C0 283.3 0 266.7 0 250C0 233.3 0 216.7 0 200C0 183.3 0 166.7 0 150C0 133.3 0 116.7 0 100C0 83.3 0 66.7 0 50C0 33.3 0 16.7 0 8.3L0 0Z" fill="#04aa5c"></path><path d="M71 0L68.2 8.3C65.3 16.7 59.7 33.3 59.3 50C59 66.7 64 83.3 64.7 100C65.3 116.7 61.7 133.3 62.2 150C62.7 166.7 67.3 183.3 67.7 200C68 216.7 64 233.3 62.3 250C60.7 266.7 61.3 283.3 60.3 300C59.3 316.7 56.7 333.3 57.2 350C57.7 366.7 61.3 383.3 62.8 400C64.3 416.7 63.7 433.3 62.2 450C60.7 466.7 58.3 483.3 58.8 500C59.3 516.7 62.7 533.3 63.3 550C64 566.7 62 583.3 60.5 600C59 616.7 58 633.3 60 650C62 666.7 67 683.3 67.8 700C68.7 716.7 65.3 733.3 63.7 750C62 766.7 62 783.3 62 791.7L62 800L0 800L0 791.7C0 783.3 0 766.7 0 750C0 733.3 0 716.7 0 700C0 683.3 0 666.7 0 650C0 633.3 0 616.7 0 600C0 583.3 0 566.7 0 550C0 533.3 0 516.7 0 500C0 483.3 0 466.7 0 450C0 433.3 0 416.7 0 400C0 383.3 0 366.7 0 350C0 333.3 0 316.7 0 300C0 283.3 0 266.7 0 250C0 233.3 0 216.7 0 200C0 183.3 0 166.7 0 150C0 133.3 0 116.7 0 100C0 83.3 0 66.7 0 50C0 33.3 0 16.7 0 8.3L0 0Z" fill="#009873"></path><path d="M41 0L42 8.3C43 16.7 45 33.3 45.8 50C46.7 66.7 46.3 83.3 48.3 100C50.3 116.7 54.7 133.3 55.7 150C56.7 166.7 54.3 183.3 51.8 200C49.3 216.7 46.7 233.3 45.8 250C45 266.7 46 283.3 45.8 300C45.7 316.7 44.3 333.3 46.5 350C48.7 366.7 54.3 383.3 55.7 400C57 416.7 54 433.3 50.8 450C47.7 466.7 44.3 483.3 45 500C45.7 516.7 50.3 533.3 50.8 550C51.3 566.7 47.7 583.3 46.2 600C44.7 616.7 45.3 633.3 46.8 650C48.3 666.7 50.7 683.3 51.7 700C52.7 716.7 52.3 733.3 53.5 750C54.7 766.7 57.3 783.3 58.7 791.7L60 800L0 800L0 791.7C0 783.3 0 766.7 0 750C0 733.3 0 716.7 0 700C0 683.3 0 666.7 0 650C0 633.3 0 616.7 0 600C0 583.3 0 566.7 0 550C0 533.3 0 516.7 0 500C0 483.3 0 466.7 0 450C0 433.3 0 416.7 0 400C0 383.3 0 366.7 0 350C0 333.3 0 316.7 0 300C0 283.3 0 266.7 0 250C0 233.3 0 216.7 0 200C0 183.3 0 166.7 0 150C0 133.3 0 116.7 0 100C0 83.3 0 66.7 0 50C0 33.3 0 16.7 0 8.3L0 0Z" fill="#00777b"></path><path d="M44 0L42.5 8.3C41 16.7 38 33.3 37.5 50C37 66.7 39 83.3 39.3 100C39.7 116.7 38.3 133.3 37 150C35.7 166.7 34.3 183.3 34.8 200C35.3 216.7 37.7 233.3 38.5 250C39.3 266.7 38.7 283.3 37.5 300C36.3 316.7 34.7 333.3 35.2 350C35.7 366.7 38.3 383.3 38.8 400C39.3 416.7 37.7 433.3 38.3 450C39 466.7 42 483.3 42.2 500C42.3 516.7 39.7 533.3 38.3 550C37 566.7 37 583.3 36.7 600C36.3 616.7 35.7 633.3 34.7 650C33.7 666.7 32.3 683.3 33 700C33.7 716.7 36.3 733.3 37.7 750C39 766.7 39 783.3 39 791.7L39 800L0 800L0 791.7C0 783.3 0 766.7 0 750C0 733.3 0 716.7 0 700C0 683.3 0 666.7 0 650C0 633.3 0 616.7 0 600C0 583.3 0 566.7 0 550C0 533.3 0 516.7 0 500C0 483.3 0 466.7 0 450C0 433.3 0 416.7 0 400C0 383.3 0 366.7 0 350C0 333.3 0 316.7 0 300C0 283.3 0 266.7 0 250C0 233.3 0 216.7 0 200C0 183.3 0 166.7 0 150C0 133.3 0 116.7 0 100C0 83.3 0 66.7 0 50C0 33.3 0 16.7 0 8.3L0 0Z" fill="#2b5562"></path><path d="M22 0L22.7 8.3C23.3 16.7 24.7 33.3 26 50C27.3 66.7 28.7 83.3 27.8 100C27 116.7 24 133.3 22.7 150C21.3 166.7 21.7 183.3 22.7 200C23.7 216.7 25.3 233.3 26 250C26.7 266.7 26.3 283.3 26.7 300C27 316.7 28 333.3 28 350C28 366.7 27 383.3 26.8 400C26.7 416.7 27.3 433.3 28 450C28.7 466.7 29.3 483.3 28.8 500C28.3 516.7 26.7 533.3 25.3 550C24 566.7 23 583.3 23.3 600C23.7 616.7 25.3 633.3 26 650C26.7 666.7 26.3 683.3 26 700C25.7 716.7 25.3 733.3 24.8 750C24.3 766.7 23.7 783.3 23.3 791.7L23 800L0 800L0 791.7C0 783.3 0 766.7 0 750C0 733.3 0 716.7 0 700C0 683.3 0 666.7 0 650C0 633.3 0 616.7 0 600C0 583.3 0 566.7 0 550C0 533.3 0 516.7 0 500C0 483.3 0 466.7 0 450C0 433.3 0 416.7 0 400C0 383.3 0 366.7 0 350C0 333.3 0 316.7 0 300C0 283.3 0 266.7 0 250C0 233.3 0 216.7 0 200C0 183.3 0 166.7 0 150C0 133.3 0 116.7 0 100C0 83.3 0 66.7 0 50C0 33.3 0 16.7 0 8.3L0 0Z" fill="#32363a"></path></svg>