<svg id="visual" viewBox="0 0 900 300" width="900" height="300" xmlns="http://www.w3.org/2000/svg" xmlns:xlink="http://www.w3.org/1999/xlink" version="1.1">
    <!-- <rect x="0" y="0" width="900" height="300" fill="#32363a"></rect> -->
    <path d="M0 159L12.5 164C25 169 50 179 75 178.2C100 177.3 125 165.7 150 165.7C175 165.7 200 177.3 225 181.2C250 185 275 181 300 184.8C325 188.7 350 200.3 375 200.3C400 200.3 425 188.7 450 186.8C475 185 500 193 525 190.7C550 188.3 575 175.7 600 177C625 178.3 650 193.7 675 197C700 200.3 725 191.7 750 184.7C775 177.7 800 172.3 825 170.2C850 168 875 169 887.5 169.5L900 170L900 301L887.5 301C875 301 850 301 825 301C800 301 775 301 750 301C725 301 700 301 675 301C650 301 625 301 600 301C575 301 550 301 525 301C500 301 475 301 450 301C425 301 400 301 375 301C350 301 325 301 300 301C275 301 250 301 225 301C200 301 175 301 150 301C125 301 100 301 75 301C50 301 25 301 12.5 301L0 301Z" fill="#04aa5c"></path>
    <path d="M0 175L12.5 177.3C25 179.7 50 184.3 75 188.3C100 192.3 125 195.7 150 202.3C175 209 200 219 225 216C250 213 275 197 300 197C325 197 350 213 375 218C400 223 425 217 450 207.8C475 198.7 500 186.3 525 183.5C550 180.7 575 187.3 600 188.7C625 190 650 186 675 185C700 184 725 186 750 188.8C775 191.7 800 195.3 825 199.5C850 203.7 875 208.3 887.5 210.7L900 213L900 301L887.5 301C875 301 850 301 825 301C800 301 775 301 750 301C725 301 700 301 675 301C650 301 625 301 600 301C575 301 550 301 525 301C500 301 475 301 450 301C425 301 400 301 375 301C350 301 325 301 300 301C275 301 250 301 225 301C200 301 175 301 150 301C125 301 100 301 75 301C50 301 25 301 12.5 301L0 301Z" fill="#009476"></path>
    <path d="M0 200L12.5 203C25 206 50 212 75 215.7C100 219.3 125 220.7 150 222C175 223.3 200 224.7 225 225.2C250 225.7 275 225.3 300 225.5C325 225.7 350 226.3 375 228.7C400 231 425 235 450 234.2C475 233.3 500 227.7 525 227.7C550 227.7 575 233.3 600 230.5C625 227.7 650 216.3 675 213.2C700 210 725 215 750 217.8C775 220.7 800 221.3 825 217.5C850 213.7 875 205.3 887.5 201.2L900 197L900 301L887.5 301C875 301 850 301 825 301C800 301 775 301 750 301C725 301 700 301 675 301C650 301 625 301 600 301C575 301 550 301 525 301C500 301 475 301 450 301C425 301 400 301 375 301C350 301 325 301 300 301C275 301 250 301 225 301C200 301 175 301 150 301C125 301 100 301 75 301C50 301 25 301 12.5 301L0 301Z" fill="#007d7d"></path>
    <path d="M0 249L12.5 245.8C25 242.7 50 236.3 75 235C100 233.7 125 237.3 150 236.7C175 236 200 231 225 230.3C250 229.7 275 233.3 300 235C325 236.7 350 236.3 375 233C400 229.7 425 223.3 450 225.3C475 227.3 500 237.7 525 241.5C550 245.3 575 242.7 600 243C625 243.3 650 246.7 675 249C700 251.3 725 252.7 750 253C775 253.3 800 252.7 825 252.5C850 252.3 875 252.7 887.5 252.8L900 253L900 301L887.5 301C875 301 850 301 825 301C800 301 775 301 750 301C725 301 700 301 675 301C650 301 625 301 600 301C575 301 550 301 525 301C500 301 475 301 450 301C425 301 400 301 375 301C350 301 325 301 300 301C275 301 250 301 225 301C200 301 175 301 150 301C125 301 100 301 75 301C50 301 25 301 12.5 301L0 301Z" fill="#1b6470"></path>
    <path d="M0 256L12.5 257.5C25 259 50 262 75 261.7C100 261.3 125 257.7 150 255.2C175 252.7 200 251.3 225 249.5C250 247.7 275 245.3 300 247.7C325 250 350 257 375 257.5C400 258 425 252 450 252.5C475 253 500 260 525 262.2C550 264.3 575 261.7 600 258.2C625 254.7 650 250.3 675 249.5C700 248.7 725 251.3 750 251C775 250.7 800 247.3 825 246C850 244.7 875 245.3 887.5 245.7L900 246L900 301L887.5 301C875 301 850 301 825 301C800 301 775 301 750 301C725 301 700 301 675 301C650 301 625 301 600 301C575 301 550 301 525 301C500 301 475 301 450 301C425 301 400 301 375 301C350 301 325 301 300 301C275 301 250 301 225 301C200 301 175 301 150 301C125 301 100 301 75 301C50 301 25 301 12.5 301L0 301Z" fill="#304c58"></path>
    <path d="M0 277L12.5 275.3C25 273.7 50 270.3 75 267.8C100 265.3 125 263.7 150 263.7C175 263.7 200 265.3 225 265.8C250 266.3 275 265.7 300 266.8C325 268 350 271 375 271.8C400 272.7 425 271.3 450 271.8C475 272.3 500 274.7 525 276.8C550 279 575 281 600 279C625 277 650 271 675 270.5C700 270 725 275 750 278.3C775 281.7 800 283.3 825 281.7C850 280 875 275 887.5 272.5L900 270L900 301L887.5 301C875 301 850 301 825 301C800 301 775 301 750 301C725 301 700 301 675 301C650 301 625 301 600 301C575 301 550 301 525 301C500 301 475 301 450 301C425 301 400 301 375 301C350 301 325 301 300 301C275 301 250 301 225 301C200 301 175 301 150 301C125 301 100 301 75 301C50 301 25 301 12.5 301L0 301Z" fill="#32363a"></path>
</svg>