<svg id="visual" viewBox="0 0 900 300" width="900" height="300" xmlns="http://www.w3.org/2000/svg" xmlns:xlink="http://www.w3.org/1999/xlink" version="1.1">
    <!-- <rect x="0" y="0" width="900" height="300" fill="#32363a"></rect> -->
    <path d="M0 171L12.5 169.5C25 168 50 165 75 167.2C100 169.3 125 176.7 150 179C175 181.3 200 178.7 225 178.5C250 178.3 275 180.7 300 186.2C325 191.7 350 200.3 375 200.8C400 201.3 425 193.7 450 185.2C475 176.7 500 167.3 525 166.7C550 166 575 174 600 183C625 192 650 202 675 205.3C700 208.7 725 205.3 750 197.3C775 189.3 800 176.7 825 176.7C850 176.7 875 189.3 887.5 195.7L900 202L900 301L887.5 301C875 301 850 301 825 301C800 301 775 301 750 301C725 301 700 301 675 301C650 301 625 301 600 301C575 301 550 301 525 301C500 301 475 301 450 301C425 301 400 301 375 301C350 301 325 301 300 301C275 301 250 301 225 301C200 301 175 301 150 301C125 301 100 301 75 301C50 301 25 301 12.5 301L0 301Z" fill="#04aa5c"></path>
    <path d="M0 191L12.5 194C25 197 50 203 75 201.2C100 199.3 125 189.7 150 186.7C175 183.7 200 187.3 225 195.3C250 203.3 275 215.7 300 214C325 212.3 350 196.7 375 192C400 187.3 425 193.7 450 199.3C475 205 500 210 525 210.8C550 211.7 575 208.3 600 203.5C625 198.7 650 192.3 675 194.2C700 196 725 206 750 204C775 202 800 188 825 182.3C850 176.7 875 179.3 887.5 180.7L900 182L900 301L887.5 301C875 301 850 301 825 301C800 301 775 301 750 301C725 301 700 301 675 301C650 301 625 301 600 301C575 301 550 301 525 301C500 301 475 301 450 301C425 301 400 301 375 301C350 301 325 301 300 301C275 301 250 301 225 301C200 301 175 301 150 301C125 301 100 301 75 301C50 301 25 301 12.5 301L0 301Z" fill="#009476"></path>
    <path d="M0 203L12.5 208.2C25 213.3 50 223.7 75 228.2C100 232.7 125 231.3 150 225C175 218.7 200 207.3 225 207.3C250 207.3 275 218.7 300 224C325 229.3 350 228.7 375 224C400 219.3 425 210.7 450 208.3C475 206 500 210 525 210.2C550 210.3 575 206.7 600 204.2C625 201.7 650 200.3 675 207.2C700 214 725 229 750 230.7C775 232.3 800 220.7 825 217C850 213.3 875 217.7 887.5 219.8L900 222L900 301L887.5 301C875 301 850 301 825 301C800 301 775 301 750 301C725 301 700 301 675 301C650 301 625 301 600 301C575 301 550 301 525 301C500 301 475 301 450 301C425 301 400 301 375 301C350 301 325 301 300 301C275 301 250 301 225 301C200 301 175 301 150 301C125 301 100 301 75 301C50 301 25 301 12.5 301L0 301Z" fill="#007d7d"></path>
    <path d="M0 228L12.5 228.2C25 228.3 50 228.7 75 233C100 237.3 125 245.7 150 246.8C175 248 200 242 225 237.3C250 232.7 275 229.3 300 231.5C325 233.7 350 241.3 375 241.3C400 241.3 425 233.7 450 233C475 232.3 500 238.7 525 241.3C550 244 575 243 600 239.5C625 236 650 230 675 226.8C700 223.7 725 223.3 750 225.8C775 228.3 800 233.7 825 236.7C850 239.7 875 240.3 887.5 240.7L900 241L900 301L887.5 301C875 301 850 301 825 301C800 301 775 301 750 301C725 301 700 301 675 301C650 301 625 301 600 301C575 301 550 301 525 301C500 301 475 301 450 301C425 301 400 301 375 301C350 301 325 301 300 301C275 301 250 301 225 301C200 301 175 301 150 301C125 301 100 301 75 301C50 301 25 301 12.5 301L0 301Z" fill="#1b6470"></path>
    <path d="M0 254L12.5 256.8C25 259.7 50 265.3 75 267C100 268.7 125 266.3 150 264.5C175 262.7 200 261.3 225 259C250 256.7 275 253.3 300 251C325 248.7 350 247.3 375 248.3C400 249.3 425 252.7 450 255.3C475 258 500 260 525 262.7C550 265.3 575 268.7 600 270C625 271.3 650 270.7 675 266.3C700 262 725 254 750 251.2C775 248.3 800 250.7 825 250.3C850 250 875 247 887.5 245.5L900 244L900 301L887.5 301C875 301 850 301 825 301C800 301 775 301 750 301C725 301 700 301 675 301C650 301 625 301 600 301C575 301 550 301 525 301C500 301 475 301 450 301C425 301 400 301 375 301C350 301 325 301 300 301C275 301 250 301 225 301C200 301 175 301 150 301C125 301 100 301 75 301C50 301 25 301 12.5 301L0 301Z" fill="#304c58"></path>
    <path d="M0 283L12.5 283.3C25 283.7 50 284.3 75 282.5C100 280.7 125 276.3 150 273.2C175 270 200 268 225 268.5C250 269 275 272 300 274C325 276 350 277 375 278.8C400 280.7 425 283.3 450 283C475 282.7 500 279.3 525 278.5C550 277.7 575 279.3 600 278.7C625 278 650 275 675 273.7C700 272.3 725 272.7 750 273.7C775 274.7 800 276.3 825 277C850 277.7 875 277.3 887.5 277.2L900 277L900 301L887.5 301C875 301 850 301 825 301C800 301 775 301 750 301C725 301 700 301 675 301C650 301 625 301 600 301C575 301 550 301 525 301C500 301 475 301 450 301C425 301 400 301 375 301C350 301 325 301 300 301C275 301 250 301 225 301C200 301 175 301 150 301C125 301 100 301 75 301C50 301 25 301 12.5 301L0 301Z" fill="#32363a"></path>
</svg>